#!OML:ASF H:\LiuWeirdWalks\Patient Classification 1\Patient 1\Session 1\male.ASF
:FULLY-SPECIFIED
:DEGREES
396
root -0.24531 17.8803 -27.9507 3.85881 -0.115515 -3.6446
lowerback 9.6638 0.713318 -0.265215
upperback 5.48219 0.930135 1.09245
thorax 0.247604 0.442814 1.19054
lowerneck -37.3144 0.355326 6.16491
upperneck 21.9087 -0.661668 -6.98125
head 13.3856 -0.828283 -3.97044
rclavicle -2.01269e-014 4.96962e-015
rhumerus -12.8954 -37.1755 -8.62509
rradius 33.5537
rwrist 4.00134
rhand -22.2608 -4.13941
rfingers 7.12502
rthumb 4.15694 -34.0786
lclavicle -2.01269e-014 4.96962e-015
lhumerus -18.0969 29.0383 23.8132
lradius 35.092
lwrist 6.51074
lhand -16.3013 -3.09109
lfingers 7.12502
lthumb 9.90947 26.6557
rfemur 4.15026 -4.24772 22.7964
rtibia 19.8938
rfoot -11.0655 -25.7895
rtoes -8.08302
lfemur -23.2434 3.78893 -9.61093
ltibia 26.005
lfoot -4.58701 15.2755
ltoes -15.4443
397
root -0.196634 17.8832 -27.8926 3.87978 -0.0324469 -3.5914
lowerback 9.69508 0.712878 -0.338003
upperback 5.4735 0.92284 0.952353
thorax 0.222725 0.439775 1.08702
lowerneck -37.2912 0.278549 6.25529
upperneck 21.7718 -0.895869 -6.74133
head 13.3039 -0.885598 -3.92807
rclavicle -7.95139e-015 1.98785e-016
rhumerus -13.2091 -37.146 -8.37909
rradius 33.6564
rwrist 3.91455
rhand -22.1475 -4.1312
rfingers 7.12502
rthumb 4.26636 -34.0682
lclavicle -7.95139e-015 1.98785e-016
lhumerus -18.166 28.8267 24.0341
lradius 35.0649
lwrist 6.53364
lhand -16.2566 -3.09853
lfingers 7.12502
lthumb 9.95258 26.6462
rfemur 4.0064 -4.28937 22.6083
rtibia 20.5015
rfoot -10.9444 -26.0016
rtoes -8.31763
lfemur -23.1885 4.12632 -9.86111
ltibia 26.1752
lfoot -4.78849 14.6925
ltoes -15.3616
398
root -0.145547 17.8869 -27.8321 3.88382 0.0257038 -3.5538
lowerback 9.69045 0.755298 -0.322345
upperback 5.49716 0.978474 0.733001
thorax 0.252477 0.470933 0.846871
lowerneck -37.2359 0.135366 6.42478
upperneck 21.6045 -1.27854 -6.45056
head 13.1923 -0.993047 -3.9059
rclavicle -3.97569e-015 7.55382e-015
rhumerus -13.7362 -37.2075 -8.08623
rradius 33.7071
rwrist 3.88165
rhand -21.9825 -4.09705
rfingers 7.12502
rthumb 4.42568 -34.0308
lclavicle -3.97569e-015 7.55382e-015
lhumerus -17.978 28.5962 24.2956
lradius 34.981
lwrist 6.58027
lhand -16.1776 -3.14652
lfingers 7.12502
lthumb 10.0288 26.5945
rfemur 3.90757 -4.3345 22.4072
rtibia 21.0715
rfoot -10.7774 -26.1395
rtoes -8.57154
lfemur -23.0958 4.41036 -10.0958
ltibia 26.346
lfoot -4.99559 14.179
ltoes -15.25
399
root -0.0926308 17.8916 -27.77 3.87437 0.0696628 -3.54146
lowerback 9.67054 0.784812 -0.277363
upperback 5.52364 1.01982 0.559565
thorax 0.293924 0.494955 0.639329
lowerneck -37.1495 0.0190378 6.53627
upperneck 21.431 -1.57146 -6.2145
head 13.0822 -1.07607 -3.87762
rclavicle -1.26228e-014 -3.97569e-016
rhumerus -14.1191 -37.2478 -7.81056
rradius 33.6895
rwrist 3.86806
rhand -21.8028 -4.09198
rfingers 7.12502
rthumb 4.59922 -34.0221
lclavicle -1.26228e-014 -3.97569e-016
lhumerus -17.868 28.437 24.583
lradius 34.8679
lwrist 6.59189
lhand -16.1044 -3.20822
lfingers 7.12502
lthumb 10.0995 26.5294
rfemur 3.85551 -4.37999 22.2108
rtibia 21.5857
rfoot -10.5511 -26.2093
rtoes -8.84003
lfemur -22.9695 4.63085 -10.3042
ltibia 26.5077
lfoot -5.1899 13.7441
ltoes -15.0799
400
root -0.0381866 17.8979 -27.7066 3.8478 0.103658 -3.54895
lowerback 9.64303 0.82028 -0.191254
upperback 5.57959 1.07237 0.389567
thorax 0.371086 0.525431 0.411741
lowerneck -37.1274 -0.189135 6.5152
upperneck 21.3192 -1.95055 -5.88406
head 13.0048 -1.19359 -3.81096
rclavicle 9.93923e-015 1.19271e-015
rhumerus -14.4774 -37.335 -7.53557
rradius 33.6283
rwrist 3.86638
rhand -21.6183 -4.114
rfingers 7.12502
rthumb 4.77739 -34.0401
lclavicle 9.93923e-015 1.19271e-015
lhumerus -17.6841 28.369 24.912
lradius 34.7143
lwrist 6.53985
lhand -16.0035 -3.27108
lfingers 7.12502
lthumb 10.1968 26.4618
rfemur 3.8577 -4.41554 22.0168
rtibia 22.0339
rfoot -10.2695 -26.2198
rtoes -9.11804
lfemur -22.801 4.77338 -10.4921
ltibia 26.649
lfoot -5.36265 13.4095
ltoes -14.8707
401
root 0.0173908 17.9058 -27.6425 3.81657 0.132424 -3.55799
lowerback 9.6132 0.826969 -0.126141
upperback 5.62175 1.08575 0.288985
thorax 0.434185 0.535024 0.271117
lowerneck -37.1109 -0.334112 6.43141
upperneck 21.2645 -2.17442 -5.65979
head 12.9656 -1.26468 -3.7489
rclavicle -5.96354e-016 4.77083e-015
rhumerus -14.6026 -37.3671 -7.30542
rradius 33.5189
rwrist 3.84853
rhand -21.4422 -4.16417
rfingers 7.12502
rthumb 4.94742 -34.0864
lclavicle -5.96354e-016 4.77083e-015
lhumerus -17.6631 28.3849 25.2548
lradius 34.5616
lwrist 6.40952
lhand -15.9581 -3.23021
lfingers 7.12502
lthumb 10.2406 26.5005
rfemur 3.89108 -4.44426 21.8106
rtibia 22.4213
rfoot -9.89701 -26.1823
rtoes -9.44048
lfemur -22.6053 4.84393 -10.6833
ltibia 26.7643
lfoot -5.49924 13.1709
ltoes -14.5479
402
root 0.0736643 17.9154 -27.5774 3.78253 0.153528 -3.55958
lowerback 9.56497 0.813639 -0.0919241
upperback 5.63642 1.07062 0.243857
thorax 0.477309 0.528933 0.207612
lowerneck -37.0183 -0.435265 6.29237
upperneck 21.2237 -2.27467 -5.5269
head 12.9293 -1.3004 -3.68938
rclavicle -3.57812e-015 3.18055e-015
rhumerus -14.5653 -37.2668 -7.0972
rradius 33.4031
rwrist 3.75467
rhand -21.3229 -4.30247
rfingers 7.12502
rthumb 5.06255 -34.222
lclavicle -3.57812e-015 3.18055e-015
lhumerus -17.8196 28.3825 25.5885
lradius 34.449
lwrist 6.27183
lhand -15.9335 -3.14471
lfingers 7.12502
lthumb 10.2643 26.5848
rfemur 3.95213 -4.4519 21.5861
rtibia 22.7558
rfoot -9.47541 -26.1082
rtoes -9.75734
lfemur -22.3808 4.84288 -10.8873
ltibia 26.8499
lfoot -5.59952 13.0339
ltoes -14.1253
403
root 0.129861 17.9261 -27.5118 3.74764 0.172659 -3.54658
lowerback 9.53049 0.770663 -0.109415
upperback 5.6183 1.01261 0.260194
thorax 0.476963 0.499316 0.239781
lowerneck -36.9216 -0.452153 6.12799
upperneck 21.2437 -2.20868 -5.51003
head 12.9288 -1.28257 -3.64195
rclavicle -1.23246e-014 -1.59028e-015
rhumerus -14.3122 -37.1174 -6.93929
rradius 33.2645
rwrist 3.64816
rhand -21.2374 -4.46411
rfingers 7.12502
rthumb 5.14509 -34.3816
lclavicle -1.23246e-014 -1.59028e-015
lhumerus -18.1772 28.4247 25.8931
lradius 34.3636
lwrist 6.08174
lhand -15.9535 -3.00516
lfingers 7.12502
lthumb 10.245 26.7253
rfemur 4.0289 -4.4379 21.3429
rtibia 23.0537
rfoot -9.00533 -26.0094
rtoes -10.0879
lfemur -22.137 4.7906 -11.112
ltibia 26.9049
lfoot -5.65585 12.9743
ltoes -13.5948
404
root 0.18554 17.9375 -27.4456 3.71308 0.194518 -3.51267
lowerback 9.48991 0.734149 -0.150995
upperback 5.57393 0.961199 0.254353
thorax 0.452691 0.472843 0.261827
lowerneck -36.775 -0.404441 6.09654
upperneck 21.2738 -2.09182 -5.59025
head 12.925 -1.24547 -3.64402
rclavicle 1.47101e-014 1.98785e-015
rhumerus -14.115 -36.9325 -6.77497
rradius 33.144
rwrist 3.51
rhand -21.1838 -4.6421
rfingers 7.12502
rthumb 5.19685 -34.5584
lclavicle 1.47101e-014 1.98785e-015
lhumerus -18.5343 28.3714 26.1534
lradius 34.3079
lwrist 5.92701
lhand -15.984 -2.88046
lfingers 7.12502
lthumb 10.2156 26.8515
rfemur 4.11509 -4.40225 21.0774
rtibia 23.3305
rfoot -8.53826 -25.8972
rtoes -10.3668
lfemur -21.8785 4.69826 -11.3641
ltibia 26.9319
lfoot -5.67056 12.9739
ltoes -12.9837
405
root 0.239876 17.949 -27.3789 3.68251 0.2285 -3.45633
lowerback 9.46125 0.674241 -0.248894
upperback 5.50937 0.874673 0.28024
thorax 0.399935 0.427168 0.350995
lowerneck -36.6229 -0.26837 6.09583
upperneck 21.2932 -1.8389 -5.76865
head 12.9248 -1.16158 -3.66307
rclavicle -1.86858e-014 6.36111e-015
rhumerus -13.7722 -36.798 -6.66406
rradius 33.0055
rwrist 3.44285
rhand -21.1418 -4.79549
rfingers 7.12502
rthumb 5.23747 -34.7108
lclavicle -1.86858e-014 6.36111e-015
lhumerus -19.0124 28.3541 26.3698
lradius 34.2759
lwrist 5.79679
lhand -16.0073 -2.81335
lfingers 7.12502
lthumb 10.1931 26.9197
rfemur 4.20206 -4.34911 20.795
rtibia 23.6019
rfoot -8.07825 -25.7835
rtoes -10.6056
lfemur -21.6177 4.58956 -11.644
ltibia 26.9362
lfoot -5.63008 12.9988
ltoes -12.2931
406
root 0.292882 17.9607 -27.3118 3.65917 0.277929 -3.37004
lowerback 9.42842 0.645154 -0.358697
upperback 5.46492 0.827545 0.227424
thorax 0.37136 0.402118 0.362415
lowerneck -36.5243 -0.185109 6.16246
upperneck 21.3405 -1.72869 -5.84514
head 12.9347 -1.11788 -3.68236
rclavicle 5.56597e-015 -2.78299e-015
rhumerus -13.6317 -36.8312 -6.52972
rradius 32.8821
rwrist 3.43942
rhand -21.0754 -4.86027
rfingers 7.12502
rthumb 5.30158 -34.7739
lclavicle 5.56597e-015 -2.78299e-015
lhumerus -19.265 28.3154 26.5664
lradius 34.236
lwrist 5.71859
lhand -15.9954 -2.82287
lfingers 7.12502
lthumb 10.2045 26.9096
rfemur 4.28471 -4.28706 20.4865
rtibia 23.8742
rfoot -7.6424 -25.6662
rtoes -10.7553
lfemur -21.3613 4.46948 -11.9598
ltibia 26.9273
lfoot -5.54534 13.0442
ltoes -11.5294
407
root 0.34355 17.9721 -27.2449 3.64519 0.350019 -3.27435
lowerback 9.37326 0.607942 -0.508496
upperback 5.56043 0.767014 0.190231
thorax 0.499957 0.368613 0.414789
lowerneck -36.9364 0.0373642 6.33184
upperneck 21.5182 -1.48057 -6.01787
head 13.0933 -1.02075 -3.74538
rclavicle 7.35503e-015 -7.95139e-016
rhumerus -13.369 -37.2449 -6.4633
rradius 32.7401
rwrist 3.53315
rhand -21.0416 -4.91771
rfingers 7.12502
rthumb 5.33419 -34.8306
lclavicle 7.35503e-015 -7.95139e-016
lhumerus -19.3455 28.6349 26.8289
lradius 34.1652
lwrist 5.5813
lhand -15.9842 -2.88136
lfingers 7.12502
lthumb 10.2154 26.8506
rfemur 4.35726 -4.21023 20.186
rtibia 24.1537
rfoot -7.24403 -25.5674
rtoes -10.8159
lfemur -21.1223 4.3611 -12.2839
ltibia 26.9159
lfoot -5.42076 13.071
ltoes -10.7112
